<?xml version="1.0" encoding="UTF-8"?>
<svg version="1.1" xmlns="http://www.w3.org/2000/svg" width="50" height="50">
<path d="M0 0 C15.18 0 30.36 0 46 0 C46 10.89 46 21.78 46 33 C40.39 33 34.78 33 29 33 C29 33.99 29 34.98 29 36 C30.98 36 32.96 36 35 36 C35 37.98 35 39.96 35 42 C27.08 42 19.16 42 11 42 C11 40.02 11 38.04 11 36 C12.98 36 14.96 36 17 36 C17 35.01 17 34.02 17 33 C11.39 33 5.78 33 0 33 C0 22.11 0 11.22 0 0 Z M2 2 C2 9.59 2 17.18 2 25 C15.86 25 29.72 25 44 25 C44 17.41 44 9.82 44 2 C30.14 2 16.28 2 2 2 Z M2 27 C2 28.32 2 29.64 2 31 C15.86 31 29.72 31 44 31 C44 29.68 44 28.36 44 27 C30.14 27 16.28 27 2 27 Z M19 33 C19 33.99 19 34.98 19 36 C21.64 36 24.28 36 27 36 C27 35.01 27 34.02 27 33 C24.36 33 21.72 33 19 33 Z M14 38 C13.67 38.66 13.34 39.32 13 40 C19.6 40 26.2 40 33 40 C32.67 39.34 32.34 38.68 32 38 C26.06 38 20.12 38 14 38 Z " fill="#FAAF04" transform="translate(2,4)"/>
<path d="M0 0 C0.99 0 1.98 0 3 0 C2.42934122 6.41991126 0.32655091 12.01589463 -2 18 C-2.99 18 -3.98 18 -5 18 C-4.42934122 11.58008874 -2.32655091 5.98410537 0 0 Z " fill="#FAAC04" transform="translate(26,9)"/>
<path d="M0 0 C1.875 0.3125 1.875 0.3125 4 1 C6 4 6 4 5.75 6.5 C5 9 5 9 3 12 C2.01 12 1.02 12 0 12 C0.185625 10.7625 0.37125 9.525 0.5625 8.25 C0.94711223 5.23720423 1.0874594 2.89989173 0 0 Z " fill="#FAB604" transform="translate(31,12)"/>
<path d="M0 0 C0.99 0 1.98 0 3 0 C2.814375 1.2375 2.62875 2.475 2.4375 3.75 C2.05288777 6.76279577 1.9125406 9.10010827 3 12 C1.125 11.6875 1.125 11.6875 -1 11 C-3 8 -3 8 -2.75 5.5 C-2 3 -2 3 0 0 Z " fill="#FAB604" transform="translate(16,12)"/>
<path d="M0 0 C0.66 0 1.32 0 2 0 C2 0.66 2 1.32 2 2 C1.34 2 0.68 2 0 2 C0 1.34 0 0.68 0 0 Z " fill="#F9B005" transform="translate(41,32)"/>
</svg>
